<svg width="671" height="338" viewBox="0 0 671 338" fill="none" xmlns="http://www.w3.org/2000/svg">
<g clip-path="url(#clip0_1_16)">
<path fill-rule="evenodd" clip-rule="evenodd" d="M670.566 338H13.6156V174C13.611 163.211 14.5356 152.407 16.3752 141.795C19.9401 121.314 26.904 101.86 36.8692 84.5432C51.6478 58.8186 72.4577 38.6824 96.7776 26.5742C105.014 22.4832 113.575 19.3601 122.335 17.2512C131.365 15.0876 140.556 13.9983 149.771 14.0002H670.566V338Z" fill="black"/>
<path fill-rule="evenodd" clip-rule="evenodd" d="M669.715 338H65.5248V168C65.4991 148.873 70.3605 130.175 79.4797 114.328C88.3453 98.8936 100.829 86.811 115.419 79.5442C125.479 74.541 136.294 71.9753 147.218 72.0002H669.715V338Z" fill="#1E1E1E"/>
<path fill-rule="evenodd" clip-rule="evenodd" d="M653.376 133H284.225C260.726 133 241.676 110.615 241.676 83.0002C241.676 55.386 260.726 33.0002 284.225 33.0002H653.376C658.984 32.9885 664.538 34.2874 669.715 36.8213V129.179C664.538 131.713 658.984 133.012 653.376 133Z" fill="black"/>
<path fill-rule="evenodd" clip-rule="evenodd" d="M422.082 86.0002C422.082 83.515 422.83 81.3936 424.325 79.6363C425.82 77.8789 427.626 77.0002 429.741 77.0002H512.285C514.4 77.0002 516.206 77.8789 517.701 79.6363C519.196 81.3936 519.944 83.515 519.944 86.0002C519.944 88.4855 519.196 90.6068 517.701 92.3642C516.206 94.1216 514.4 95.0002 512.285 95.0002H429.741C427.626 95.0002 425.82 94.1216 424.325 92.3642C422.83 90.6068 422.082 88.4855 422.082 86.0002Z" fill="#2B2B29"/>
<path d="M559.089 103C567.078 103 573.555 95.389 573.555 86.0002C573.555 76.6114 567.078 69.0002 559.089 69.0002C551.099 69.0002 544.622 76.6114 544.622 86.0002C544.622 95.389 551.099 103 559.089 103Z" fill="#171717"/>
<path d="M559.089 102C566.608 102 572.704 94.8368 572.704 86.0002C572.704 77.1636 566.608 70.0002 559.089 70.0002C551.569 70.0002 545.473 77.1636 545.473 86.0002C545.473 94.8368 551.569 102 559.089 102Z" stroke="#2B2B29" stroke-width="2"/>
<path d="M559.089 92.0002C561.908 92.0002 564.194 89.3139 564.194 86.0002C564.194 82.6865 561.908 80.0002 559.089 80.0002C556.269 80.0002 553.983 82.6865 553.983 86.0002C553.983 89.3139 556.269 92.0002 559.089 92.0002Z" fill="#232A5E"/>
<path fill-rule="evenodd" clip-rule="evenodd" d="M664.609 303H106.371C98.8514 303 92.7559 295.837 92.7559 287V245C92.7559 236.164 98.8514 229 106.371 229H664.609C666.674 228.993 668.711 229.543 670.566 230.608V301.391C668.712 302.456 666.674 303.007 664.609 303Z" fill="#323234"/>
<path d="M134.349 272.362H128.013L126.59 277H124.533L130.308 259.227H132.054L137.84 277H135.793L134.349 272.362ZM128.615 270.433H133.757L131.181 262.12L128.615 270.433ZM148.227 272.362H141.891L140.467 277H138.411L144.187 259.227H145.931L151.718 277H149.671L148.227 272.362ZM142.494 270.433H147.635L145.059 262.12L142.494 270.433Z" fill="white"/>
<path d="M167.942 133.475C167.002 134.559 165.905 135.101 164.65 135.101C163.047 135.101 161.763 134.456 160.799 133.167C159.835 131.868 159.353 130.12 159.353 127.923C159.353 126.527 159.61 125.247 160.126 124.085C160.649 122.913 161.377 122.005 162.307 121.361C163.238 120.706 164.285 120.379 165.449 120.379C166.645 120.379 167.709 120.731 168.64 121.434C169.571 122.137 170.293 123.148 170.809 124.466C171.324 125.784 171.586 127.293 171.594 128.992V130.56C171.594 134.115 170.842 136.907 169.337 138.939C167.834 140.97 165.702 142.054 162.943 142.191L162.057 142.205V138.675L162.856 138.66C165.989 138.494 167.684 136.766 167.942 133.475ZM165.535 131.864C166.117 131.864 166.616 131.688 167.031 131.336C167.455 130.985 167.775 130.56 167.991 130.062V128.319C167.991 126.883 167.759 125.77 167.293 124.979C166.828 124.188 166.205 123.792 165.424 123.792C164.7 123.792 164.107 124.183 163.641 124.964C163.176 125.736 162.943 126.707 162.943 127.879C162.943 129.041 163.167 129.998 163.616 130.75C164.073 131.492 164.713 131.864 165.535 131.864ZM174.499 139.92C174.499 139.246 174.689 138.699 175.071 138.28C175.462 137.86 175.949 137.65 176.53 137.65C177.12 137.65 177.606 137.86 177.988 138.28C178.379 138.699 178.575 139.246 178.575 139.92C178.575 140.584 178.383 141.126 178.001 141.546C177.619 141.956 177.128 142.161 176.53 142.161C175.94 142.161 175.454 141.956 175.071 141.546C174.689 141.126 174.499 140.584 174.499 139.92ZM174.499 127.923C174.499 127.249 174.689 126.702 175.071 126.282C175.462 125.863 175.949 125.653 176.53 125.653C177.12 125.653 177.606 125.863 177.988 126.282C178.379 126.702 178.575 127.249 178.575 127.923C178.575 128.587 178.383 129.129 178.001 129.549C177.619 129.959 177.128 130.164 176.53 130.164C175.94 130.164 175.454 129.959 175.071 129.549C174.689 129.129 174.499 128.587 174.499 127.923ZM192.037 133.973H194.094V137.386H192.037V142H188.435V137.386H180.992L180.831 134.72L188.398 120.672H192.037V133.973ZM184.421 133.973H188.435V126.444L188.198 126.927L184.421 133.973ZM204.789 142H201.187V125.682L196.886 127.249V123.807L204.403 120.643H204.789V142Z" fill="white"/>
<path d="M515.287 275.061L519.883 259.509H521.759L515.04 281.145L514.691 282.102C513.828 284.346 512.495 285.469 510.691 285.469C510.275 285.469 509.828 285.389 509.354 285.229L509.339 283.537L510.241 283.64C511.094 283.64 511.782 283.389 512.306 282.888C512.839 282.398 513.29 281.549 513.659 280.342L514.43 277.846L508.496 259.509H510.401L515.287 275.061ZM523.271 268.481C523.271 266.704 523.562 265.103 524.144 263.679C524.736 262.255 525.565 261.15 526.631 260.364C527.707 259.566 528.923 259.167 530.281 259.167C532.375 259.167 534.072 260.033 535.371 261.765C536.671 263.485 537.32 265.77 537.32 268.618V269.045C537.32 270.834 537.024 272.446 536.432 273.882C535.851 275.306 535.026 276.405 533.96 277.18C532.894 277.955 531.677 278.342 530.31 278.342C528.226 278.342 526.529 277.482 525.22 275.761C523.921 274.03 523.271 271.74 523.271 268.891V268.481ZM525.016 269.045C525.016 271.255 525.502 273.073 526.471 274.497C527.45 275.91 528.73 276.616 530.31 276.616C531.88 276.616 533.151 275.91 534.12 274.497C535.1 273.073 535.589 271.198 535.589 268.874V268.481C535.589 267.068 535.366 265.775 534.92 264.602C534.474 263.428 533.849 262.523 533.045 261.885C532.24 261.235 531.319 260.91 530.281 260.91C528.73 260.91 527.465 261.628 526.485 263.064C525.506 264.488 525.016 266.356 525.016 268.669V269.045ZM551.049 275.659C550.001 277.448 548.329 278.342 546.031 278.342C544.354 278.342 543.079 277.772 542.206 276.633C541.334 275.482 540.888 273.785 540.868 271.54V259.509H542.599V271.284C542.599 274.804 543.811 276.565 546.235 276.565C548.755 276.565 550.35 275.34 551.02 272.89V259.509H552.764V278H551.078L551.049 275.659ZM564.573 261.252C564.205 261.172 563.812 261.133 563.395 261.133C562.309 261.133 561.389 261.491 560.632 262.209C559.886 262.916 559.352 263.947 559.032 265.302V278H557.302V259.509H559.003L559.032 262.448C559.953 260.261 561.432 259.167 563.468 259.167C563.953 259.167 564.336 259.241 564.617 259.389L564.573 261.252ZM568.995 259.509L569.053 262.671C569.644 261.531 570.381 260.665 571.263 260.073C572.145 259.469 573.119 259.167 574.187 259.167C575.873 259.167 577.129 259.726 577.953 260.842C578.777 261.959 579.194 263.633 579.204 265.866V278H577.473V265.849C577.464 264.197 577.162 262.967 576.571 262.158C575.99 261.349 575.054 260.945 573.764 260.945C572.688 260.945 571.733 261.343 570.899 262.141C570.075 262.927 569.464 263.992 569.067 265.337V278H567.336V259.509H568.995ZM593.645 278C593.47 277.419 593.359 276.559 593.31 275.42C592.699 276.354 591.919 277.077 590.969 277.59C590.028 278.091 589.03 278.342 587.973 278.342C586.461 278.342 585.234 277.846 584.294 276.855C583.363 275.864 582.898 274.611 582.898 273.095C582.898 271.295 583.533 269.871 584.802 268.823C586.082 267.775 587.862 267.251 590.14 267.251H593.296V265.149C593.296 263.827 592.947 262.79 592.248 262.038C591.56 261.275 590.552 260.893 589.224 260.893C588.011 260.893 587.008 261.258 586.213 261.987C585.418 262.716 585.021 263.594 585.021 264.619L583.276 264.602C583.276 263.132 583.857 261.862 585.021 260.791C586.184 259.708 587.614 259.167 589.311 259.167C591.066 259.167 592.448 259.686 593.456 260.722C594.474 261.748 594.997 263.183 595.026 265.029V273.779C595.026 275.568 595.186 276.906 595.506 277.795V278H593.645ZM588.176 276.531C589.34 276.531 590.377 276.2 591.288 275.539C592.21 274.878 592.879 273.996 593.296 272.89V268.823H590.184C588.448 268.846 587.091 269.222 586.111 269.951C585.133 270.669 584.642 271.66 584.642 272.925C584.642 273.961 584.967 274.822 585.617 275.505C586.276 276.189 587.13 276.531 588.176 276.531ZM601.265 259.509L601.323 262.517C601.905 261.4 602.632 260.563 603.505 260.005C604.377 259.446 605.347 259.167 606.414 259.167C608.895 259.167 610.471 260.364 611.14 262.756C611.702 261.605 612.454 260.722 613.394 260.107C614.334 259.481 615.372 259.167 616.506 259.167C619.88 259.167 621.601 261.332 621.669 265.661V278H619.924V265.815C619.914 264.163 619.609 262.938 619.008 262.141C618.417 261.343 617.447 260.945 616.099 260.945C614.848 260.967 613.792 261.446 612.929 262.38C612.066 263.303 611.586 264.431 611.489 265.764V278H609.744V265.661C609.734 264.078 609.414 262.899 608.784 262.124C608.163 261.338 607.203 260.945 605.905 260.945C604.809 260.945 603.868 261.315 603.083 262.055C602.297 262.785 601.716 263.873 601.338 265.32V278H599.593V259.509H601.265ZM632.184 278.342C630.846 278.342 629.634 277.955 628.548 277.18C627.472 276.405 626.633 275.329 626.032 273.95C625.431 272.56 625.13 271.005 625.13 269.284V268.55C625.13 266.772 625.421 265.171 626.003 263.747C626.594 262.323 627.414 261.207 628.461 260.398C629.507 259.577 630.642 259.167 631.864 259.167C633.773 259.167 635.286 259.936 636.401 261.474C637.526 263.001 638.088 265.092 638.088 267.746V268.891H626.861V269.284C626.861 271.381 627.37 273.13 628.388 274.531C629.415 275.921 630.706 276.616 632.256 276.616C633.187 276.616 634.006 276.417 634.714 276.018C635.432 275.619 636.081 274.981 636.663 274.104L637.753 275.078C636.474 277.254 634.617 278.342 632.184 278.342ZM631.864 260.91C630.555 260.91 629.449 261.474 628.548 262.602C627.656 263.73 627.113 265.246 626.919 267.148H636.358V266.926C636.309 265.149 635.878 263.702 635.063 262.585C634.249 261.469 633.182 260.91 631.864 260.91ZM641.316 276.77C641.316 276.371 641.424 276.035 641.636 275.761C641.859 275.477 642.165 275.334 642.553 275.334C642.941 275.334 643.246 275.477 643.469 275.761C643.692 276.035 643.804 276.371 643.804 276.77C643.804 277.169 643.692 277.499 643.469 277.761C643.246 278.012 642.941 278.137 642.553 278.137C642.165 278.137 641.859 278.012 641.636 277.761C641.424 277.499 641.316 277.169 641.316 276.77ZM652.37 273.745L652.631 275.334L652.98 273.659L656.761 259.509H658.245L661.982 273.54L662.39 275.488L662.724 273.694L665.953 259.509H667.756L663.174 278H661.691L657.648 263.337L657.459 262.329L657.27 263.354L653.3 278H651.816L647.25 259.509H649.039L652.37 273.745ZM680.99 278C680.815 277.419 680.704 276.559 680.655 275.42C680.045 276.354 679.265 277.077 678.314 277.59C677.374 278.091 676.375 278.342 675.318 278.342C673.806 278.342 672.579 277.846 671.639 276.855C670.708 275.864 670.243 274.611 670.243 273.095C670.243 271.295 670.877 269.871 672.148 268.823C673.428 267.775 675.206 267.251 677.485 267.251H680.641V265.149C680.641 263.827 680.292 262.79 679.594 262.038C678.905 261.275 677.897 260.893 676.569 260.893C675.357 260.893 674.354 261.258 673.559 261.987C672.763 262.716 672.366 263.594 672.366 264.619L670.62 264.602C670.62 263.132 671.202 261.862 672.366 260.791C673.529 259.708 674.959 259.167 676.656 259.167C678.411 259.167 679.792 259.686 680.801 260.722C681.819 261.748 682.342 263.183 682.371 265.029V273.779C682.371 275.568 682.531 276.906 682.851 277.795V278H680.99ZM675.522 276.531C676.685 276.531 677.723 276.2 678.634 275.539C679.555 274.878 680.224 273.996 680.641 272.89V268.823H677.529C675.793 268.846 674.436 269.222 673.457 269.951C672.477 270.669 671.988 271.66 671.988 272.925C671.988 273.961 672.313 274.822 672.962 275.505C673.622 276.189 674.474 276.531 675.522 276.531ZM691.694 275.18L696.478 259.509H698.267L692.392 278H690.981L685.077 259.509H686.865L691.694 275.18ZM703.081 278H701.335V259.509H703.081V278ZM701.03 254.16C701.03 253.773 701.137 253.448 701.35 253.186C701.563 252.912 701.854 252.776 702.223 252.776C702.591 252.776 702.882 252.912 703.095 253.186C703.318 253.448 703.43 253.773 703.43 254.16C703.43 254.547 703.318 254.872 703.095 255.134C702.882 255.396 702.591 255.527 702.223 255.527C701.854 255.527 701.563 255.396 701.35 255.134C701.137 254.872 701.03 254.547 701.03 254.16ZM717.944 275.659C716.896 277.448 715.224 278.342 712.926 278.342C711.249 278.342 709.974 277.772 709.101 276.633C708.229 275.482 707.783 273.785 707.764 271.54V259.509H709.494V271.284C709.494 274.804 710.706 276.565 713.13 276.565C715.65 276.565 717.245 275.34 717.915 272.89V259.509H719.659V278H717.973L717.944 275.659ZM725.782 259.509L725.841 262.517C726.422 261.4 727.15 260.563 728.022 260.005C728.894 259.446 729.864 259.167 730.93 259.167C733.413 259.167 734.988 260.364 735.657 262.756C736.219 261.605 736.971 260.722 737.911 260.107C738.851 259.481 739.889 259.167 741.023 259.167C744.397 259.167 746.119 261.332 746.186 265.661V278H744.44V265.815C744.431 264.163 744.126 262.938 743.525 262.141C742.933 261.343 741.964 260.945 740.616 260.945C739.365 260.967 738.308 261.446 737.445 262.38C736.583 263.303 736.103 264.431 736.006 265.764V278H734.261V265.661C734.251 264.078 733.931 262.899 733.301 262.124C732.681 261.338 731.721 260.945 730.422 260.945C729.326 260.945 728.385 261.315 727.6 262.055C726.815 262.785 726.233 263.873 725.855 265.32V278H724.11V259.509H725.782ZM750.447 276.77C750.447 276.371 750.554 276.035 750.767 275.761C750.99 275.477 751.296 275.334 751.683 275.334C752.071 275.334 752.377 275.477 752.6 275.761C752.823 276.035 752.934 276.371 752.934 276.77C752.934 277.169 752.823 277.499 752.6 277.761C752.377 278.012 752.071 278.137 751.683 278.137C751.296 278.137 750.99 278.012 750.767 277.761C750.554 277.499 750.447 277.169 750.447 276.77ZM763.551 276.616C764.763 276.616 765.775 276.217 766.59 275.42C767.414 274.611 767.86 273.568 767.928 272.292H769.6C769.552 273.42 769.251 274.451 768.698 275.385C768.146 276.308 767.409 277.032 766.488 277.556C765.577 278.08 764.597 278.342 763.551 278.342C761.485 278.342 759.846 277.499 758.635 275.813C757.432 274.127 756.831 271.859 756.831 269.011V268.396C756.831 266.573 757.103 264.961 757.646 263.559C758.189 262.158 758.965 261.076 759.972 260.312C760.991 259.549 762.178 259.167 763.535 259.167C765.261 259.167 766.682 259.771 767.797 260.979C768.921 262.186 769.523 263.776 769.6 265.747H767.928C767.85 264.3 767.404 263.132 766.59 262.243C765.785 261.355 764.767 260.91 763.535 260.91C761.965 260.91 760.743 261.577 759.871 262.91C759.008 264.243 758.577 266.111 758.577 268.515V269.114C758.577 271.472 759.008 273.312 759.871 274.634C760.743 275.955 761.97 276.616 763.551 276.616ZM772.131 268.481C772.131 266.704 772.421 265.103 773.003 263.679C773.595 262.255 774.424 261.15 775.49 260.364C776.566 259.566 777.783 259.167 779.141 259.167C781.235 259.167 782.932 260.033 784.23 261.765C785.53 263.485 786.179 265.77 786.179 268.618V269.045C786.179 270.834 785.884 272.446 785.292 273.882C784.71 275.306 783.886 276.405 782.82 277.18C781.753 277.955 780.536 278.342 779.169 278.342C777.085 278.342 775.389 277.482 774.08 275.761C772.78 274.03 772.131 271.74 772.131 268.891V268.481ZM773.876 269.045C773.876 271.255 774.361 273.073 775.33 274.497C776.309 275.91 777.589 276.616 779.169 276.616C780.74 276.616 782.01 275.91 782.98 274.497C783.959 273.073 784.449 271.198 784.449 268.874V268.481C784.449 267.068 784.226 265.775 783.78 264.602C783.333 263.428 782.709 262.523 781.904 261.885C781.099 261.235 780.178 260.91 779.141 260.91C777.589 260.91 776.324 261.628 775.344 263.064C774.366 264.488 773.876 266.356 773.876 268.669V269.045Z" fill="#84E575"/>
<path fill-rule="evenodd" clip-rule="evenodd" d="M354.48 262.829V260.029C354.481 257.328 353.255 254.832 351.265 253.482C349.275 252.131 346.822 252.131 344.833 253.482C342.842 254.833 341.617 257.329 341.618 260.03V262.829H339.503V269.488C339.503 275.034 343.328 279.529 348.047 279.529C352.766 279.529 356.592 275.034 356.592 269.488V262.829H354.48ZM348.723 272.229V274.701H347.373V272.231C346.185 271.836 345.426 270.471 345.597 269.034C345.767 267.597 346.813 266.527 348.047 266.527C349.281 266.527 350.327 267.597 350.497 269.034C350.667 270.471 349.909 271.836 348.721 272.231L348.723 272.229ZM353.13 262.829H342.966V260.029C342.966 256.731 345.241 254.057 348.047 254.057C350.854 254.057 353.129 256.731 353.129 260.029L353.13 262.829Z" fill="#80E770"/>
</g>
<defs>
<clipPath id="clip0_1_16">
<rect width="671" height="338" fill="white"/>
</clipPath>
</defs>
</svg>
